<mxfile modified="2024-05-21T01:08:12.272Z" host="app.diagrams.net" agent="Mozilla/5.0 (Windows NT 10.0; Win64; x64) AppleWebKit/537.36 (KHTML, like Gecko) Chrome/124.0.0.0 Safari/537.36" etag="HIV4miQ86ihLZKHVVBZL" version="24.4.4" type="github">
  <diagram id="Ht1M8jgEwFfnCIfOTk4-" name="Page-1">
    <mxGraphModel dx="1434" dy="738" grid="1" gridSize="10" guides="1" tooltips="1" connect="1" arrows="1" fold="1" page="1" pageScale="1" pageWidth="1169" pageHeight="827" math="0" shadow="0">
      <root>
        <mxCell id="0" />
        <mxCell id="1" parent="0" />
        <mxCell id="JWODVW2oWpwJROL9quAr-2" value="&lt;font style=&quot;font-size: 14px;&quot;&gt;ap-northeast-1&lt;/font&gt;" style="points=[[0,0],[0.25,0],[0.5,0],[0.75,0],[1,0],[1,0.25],[1,0.5],[1,0.75],[1,1],[0.75,1],[0.5,1],[0.25,1],[0,1],[0,0.75],[0,0.5],[0,0.25]];outlineConnect=0;gradientColor=none;html=1;whiteSpace=wrap;fontSize=12;fontStyle=0;container=1;pointerEvents=0;collapsible=0;recursiveResize=0;shape=mxgraph.aws4.group;grIcon=mxgraph.aws4.group_region;strokeColor=#00A4A6;fillColor=none;verticalAlign=top;align=left;spacingLeft=30;fontColor=#147EBA;dashed=1;" parent="1" vertex="1">
          <mxGeometry x="40" y="320" width="960" height="500" as="geometry" />
        </mxCell>
        <mxCell id="JWODVW2oWpwJROL9quAr-33" value="&lt;b&gt;&lt;font style=&quot;font-size: 16px;&quot;&gt;AwsCostNotificationStack&lt;/font&gt;&lt;/b&gt;" style="fillColor=none;strokeColor=#5A6C86;dashed=1;verticalAlign=top;fontStyle=0;fontColor=#5A6C86;whiteSpace=wrap;html=1;" parent="JWODVW2oWpwJROL9quAr-2" vertex="1">
          <mxGeometry x="20" y="40" width="920" height="440" as="geometry" />
        </mxCell>
        <mxCell id="JWODVW2oWpwJROL9quAr-38" value="" style="group" parent="JWODVW2oWpwJROL9quAr-2" vertex="1" connectable="0">
          <mxGeometry x="560" y="80" width="360" height="180" as="geometry" />
        </mxCell>
        <mxCell id="JWODVW2oWpwJROL9quAr-34" value="&lt;font style=&quot;font-size: 16px;&quot;&gt;&lt;b&gt;LineNotificationConstruct&lt;/b&gt;&lt;/font&gt;" style="fillColor=none;strokeColor=#5A6C86;dashed=1;verticalAlign=top;fontStyle=0;fontColor=#5A6C86;whiteSpace=wrap;html=1;" parent="JWODVW2oWpwJROL9quAr-38" vertex="1">
          <mxGeometry width="360" height="180" as="geometry" />
        </mxCell>
        <mxCell id="JWODVW2oWpwJROL9quAr-6" value="&lt;font style=&quot;font-size: 14px;&quot;&gt;Line Notification&lt;/font&gt;&lt;div style=&quot;font-size: 14px;&quot;&gt;&lt;font style=&quot;font-size: 14px;&quot;&gt;Handler&lt;/font&gt;&lt;/div&gt;" style="sketch=0;outlineConnect=0;fontColor=#232F3E;gradientColor=none;fillColor=#ED7100;strokeColor=none;dashed=0;verticalLabelPosition=bottom;verticalAlign=top;align=center;html=1;fontSize=12;fontStyle=0;aspect=fixed;pointerEvents=1;shape=mxgraph.aws4.lambda_function;" parent="JWODVW2oWpwJROL9quAr-38" vertex="1">
          <mxGeometry x="240" y="40" width="80" height="80" as="geometry" />
        </mxCell>
        <mxCell id="JWODVW2oWpwJROL9quAr-11" value="&lt;font style=&quot;font-size: 14px;&quot;&gt;Notification&lt;/font&gt;&lt;div style=&quot;font-size: 14px;&quot;&gt;&lt;font style=&quot;font-size: 14px;&quot;&gt;Topic&lt;/font&gt;&lt;/div&gt;" style="sketch=0;outlineConnect=0;fontColor=#232F3E;gradientColor=none;fillColor=#E7157B;strokeColor=none;dashed=0;verticalLabelPosition=bottom;verticalAlign=top;align=center;html=1;fontSize=12;fontStyle=0;aspect=fixed;pointerEvents=1;shape=mxgraph.aws4.topic;" parent="JWODVW2oWpwJROL9quAr-38" vertex="1">
          <mxGeometry x="80" y="45.5" width="81.49" height="70" as="geometry" />
        </mxCell>
        <mxCell id="JWODVW2oWpwJROL9quAr-22" style="edgeStyle=orthogonalEdgeStyle;rounded=0;orthogonalLoop=1;jettySize=auto;html=1;strokeWidth=2;strokeColor=#333333;" parent="JWODVW2oWpwJROL9quAr-38" source="JWODVW2oWpwJROL9quAr-11" target="JWODVW2oWpwJROL9quAr-6" edge="1">
          <mxGeometry relative="1" as="geometry" />
        </mxCell>
        <mxCell id="JWODVW2oWpwJROL9quAr-36" value="&lt;font style=&quot;font-size: 16px;&quot;&gt;&lt;b&gt;CostScheduleNotificationConstruct&lt;/b&gt;&lt;/font&gt;" style="fillColor=none;strokeColor=#5A6C86;dashed=1;verticalAlign=top;fontStyle=0;fontColor=#5A6C86;whiteSpace=wrap;html=1;" parent="JWODVW2oWpwJROL9quAr-2" vertex="1">
          <mxGeometry x="40" y="80" width="320" height="180" as="geometry" />
        </mxCell>
        <mxCell id="JWODVW2oWpwJROL9quAr-30" value="&lt;font style=&quot;font-size: 16px;&quot;&gt;&lt;b&gt;BudgetAlartConstruct&lt;/b&gt;&lt;/font&gt;" style="fillColor=none;strokeColor=#5A6C86;dashed=1;verticalAlign=top;fontStyle=0;fontColor=#5A6C86;whiteSpace=wrap;html=1;" parent="JWODVW2oWpwJROL9quAr-2" vertex="1">
          <mxGeometry x="40" y="280" width="480" height="180" as="geometry" />
        </mxCell>
        <mxCell id="JWODVW2oWpwJROL9quAr-21" style="edgeStyle=orthogonalEdgeStyle;rounded=0;orthogonalLoop=1;jettySize=auto;html=1;strokeWidth=2;strokeColor=#333333;" parent="JWODVW2oWpwJROL9quAr-2" source="JWODVW2oWpwJROL9quAr-5" target="JWODVW2oWpwJROL9quAr-10" edge="1">
          <mxGeometry relative="1" as="geometry" />
        </mxCell>
        <mxCell id="JWODVW2oWpwJROL9quAr-5" value="&lt;font style=&quot;font-size: 14px;&quot;&gt;Monthly Cost&lt;/font&gt;&lt;div style=&quot;font-size: 14px;&quot;&gt;&lt;font style=&quot;font-size: 14px;&quot;&gt;Budget&lt;/font&gt;&lt;/div&gt;" style="sketch=0;points=[[0,0,0],[0.25,0,0],[0.5,0,0],[0.75,0,0],[1,0,0],[0,1,0],[0.25,1,0],[0.5,1,0],[0.75,1,0],[1,1,0],[0,0.25,0],[0,0.5,0],[0,0.75,0],[1,0.25,0],[1,0.5,0],[1,0.75,0]];outlineConnect=0;fontColor=#232F3E;fillColor=#7AA116;strokeColor=#ffffff;dashed=0;verticalLabelPosition=bottom;verticalAlign=top;align=center;html=1;fontSize=12;fontStyle=0;aspect=fixed;shape=mxgraph.aws4.resourceIcon;resIcon=mxgraph.aws4.budgets_2;" parent="JWODVW2oWpwJROL9quAr-2" vertex="1">
          <mxGeometry x="81" y="321" width="78" height="78" as="geometry" />
        </mxCell>
        <mxCell id="JWODVW2oWpwJROL9quAr-24" style="edgeStyle=orthogonalEdgeStyle;rounded=0;orthogonalLoop=1;jettySize=auto;html=1;strokeWidth=2;strokeColor=#333333;" parent="JWODVW2oWpwJROL9quAr-2" source="JWODVW2oWpwJROL9quAr-4" target="JWODVW2oWpwJROL9quAr-19" edge="1">
          <mxGeometry relative="1" as="geometry" />
        </mxCell>
        <mxCell id="JWODVW2oWpwJROL9quAr-4" value="&lt;font style=&quot;font-size: 14px;&quot;&gt;Cost&amp;nbsp;&lt;span style=&quot;background-color: initial;&quot;&gt;Notification&lt;/span&gt;&lt;/font&gt;&lt;div style=&quot;font-size: 14px;&quot;&gt;&lt;span style=&quot;background-color: initial;&quot;&gt;&lt;font style=&quot;font-size: 14px;&quot;&gt;Schedule&lt;/font&gt;&lt;/span&gt;&lt;/div&gt;" style="sketch=0;outlineConnect=0;fontColor=#232F3E;gradientColor=none;fillColor=#E7157B;strokeColor=none;dashed=0;verticalLabelPosition=bottom;verticalAlign=top;align=center;html=1;fontSize=12;fontStyle=0;aspect=fixed;pointerEvents=1;shape=mxgraph.aws4.eventbridge_scheduler;" parent="JWODVW2oWpwJROL9quAr-2" vertex="1">
          <mxGeometry x="80" y="122" width="78" height="78" as="geometry" />
        </mxCell>
        <mxCell id="JWODVW2oWpwJROL9quAr-8" value="&lt;font style=&quot;font-size: 14px;&quot;&gt;Budget Alart&lt;/font&gt;&lt;div style=&quot;font-size: 14px;&quot;&gt;&lt;font style=&quot;font-size: 14px;&quot;&gt;Handler&lt;/font&gt;&lt;/div&gt;" style="sketch=0;outlineConnect=0;fontColor=#232F3E;gradientColor=none;fillColor=#ED7100;strokeColor=none;dashed=0;verticalLabelPosition=bottom;verticalAlign=top;align=center;html=1;fontSize=12;fontStyle=0;aspect=fixed;pointerEvents=1;shape=mxgraph.aws4.lambda_function;" parent="JWODVW2oWpwJROL9quAr-2" vertex="1">
          <mxGeometry x="400" y="320" width="80" height="80" as="geometry" />
        </mxCell>
        <mxCell id="JWODVW2oWpwJROL9quAr-23" style="edgeStyle=orthogonalEdgeStyle;rounded=0;orthogonalLoop=1;jettySize=auto;html=1;strokeWidth=2;strokeColor=#333333;" parent="JWODVW2oWpwJROL9quAr-2" source="JWODVW2oWpwJROL9quAr-10" target="JWODVW2oWpwJROL9quAr-8" edge="1">
          <mxGeometry relative="1" as="geometry" />
        </mxCell>
        <mxCell id="JWODVW2oWpwJROL9quAr-10" value="&lt;font style=&quot;font-size: 14px;&quot;&gt;Budget Alart&lt;/font&gt;&lt;div style=&quot;font-size: 14px;&quot;&gt;&lt;font style=&quot;font-size: 14px;&quot;&gt;Topic&lt;/font&gt;&lt;/div&gt;" style="sketch=0;outlineConnect=0;fontColor=#232F3E;gradientColor=none;fillColor=#E7157B;strokeColor=none;dashed=0;verticalLabelPosition=bottom;verticalAlign=top;align=center;html=1;fontSize=12;fontStyle=0;aspect=fixed;pointerEvents=1;shape=mxgraph.aws4.topic;" parent="JWODVW2oWpwJROL9quAr-2" vertex="1">
          <mxGeometry x="240" y="326.5" width="78" height="67" as="geometry" />
        </mxCell>
        <mxCell id="JWODVW2oWpwJROL9quAr-39" style="edgeStyle=orthogonalEdgeStyle;rounded=0;orthogonalLoop=1;jettySize=auto;html=1;strokeWidth=2;strokeColor=#333333;" parent="JWODVW2oWpwJROL9quAr-2" source="JWODVW2oWpwJROL9quAr-19" target="JWODVW2oWpwJROL9quAr-11" edge="1">
          <mxGeometry relative="1" as="geometry" />
        </mxCell>
        <mxCell id="JWODVW2oWpwJROL9quAr-19" value="&lt;font style=&quot;font-size: 14px;&quot;&gt;Cost Notification&lt;/font&gt;&lt;div style=&quot;font-size: 14px;&quot;&gt;&lt;font style=&quot;font-size: 14px;&quot;&gt;Handler&lt;/font&gt;&lt;/div&gt;" style="sketch=0;outlineConnect=0;fontColor=#232F3E;gradientColor=none;fillColor=#ED7100;strokeColor=none;dashed=0;verticalLabelPosition=bottom;verticalAlign=top;align=center;html=1;fontSize=12;fontStyle=0;aspect=fixed;pointerEvents=1;shape=mxgraph.aws4.lambda_function;" parent="JWODVW2oWpwJROL9quAr-2" vertex="1">
          <mxGeometry x="240" y="121" width="80" height="80" as="geometry" />
        </mxCell>
        <mxCell id="JWODVW2oWpwJROL9quAr-26" style="edgeStyle=orthogonalEdgeStyle;rounded=0;orthogonalLoop=1;jettySize=auto;html=1;entryX=-0.003;entryY=0.514;entryDx=0;entryDy=0;entryPerimeter=0;strokeWidth=2;strokeColor=#333333;" parent="JWODVW2oWpwJROL9quAr-2" source="JWODVW2oWpwJROL9quAr-8" target="JWODVW2oWpwJROL9quAr-11" edge="1">
          <mxGeometry relative="1" as="geometry">
            <Array as="points">
              <mxPoint x="610" y="360" />
              <mxPoint x="610" y="162" />
            </Array>
          </mxGeometry>
        </mxCell>
        <mxCell id="JWODVW2oWpwJROL9quAr-1" value="&lt;font style=&quot;font-size: 14px;&quot;&gt;us-east-1&lt;/font&gt;&lt;div style=&quot;font-size: 14px;&quot;&gt;&lt;br&gt;&lt;/div&gt;" style="points=[[0,0],[0.25,0],[0.5,0],[0.75,0],[1,0],[1,0.25],[1,0.5],[1,0.75],[1,1],[0.75,1],[0.5,1],[0.25,1],[0,1],[0,0.75],[0,0.5],[0,0.25]];outlineConnect=0;gradientColor=none;html=1;whiteSpace=wrap;fontSize=12;fontStyle=0;container=1;pointerEvents=0;collapsible=0;recursiveResize=0;shape=mxgraph.aws4.group;grIcon=mxgraph.aws4.group_region;strokeColor=#00A4A6;fillColor=none;verticalAlign=top;align=left;spacingLeft=30;fontColor=#147EBA;dashed=1;" parent="1" vertex="1">
          <mxGeometry x="40" y="40" width="440" height="240" as="geometry" />
        </mxCell>
        <mxCell id="JWODVW2oWpwJROL9quAr-15" value="&lt;font style=&quot;font-size: 16px;&quot;&gt;&lt;b&gt;AwsCostAnomaryNotificationStack&lt;/b&gt;&lt;/font&gt;" style="fillColor=none;strokeColor=#5A6C86;dashed=1;verticalAlign=top;fontStyle=0;fontColor=#5A6C86;whiteSpace=wrap;html=1;" parent="JWODVW2oWpwJROL9quAr-1" vertex="1">
          <mxGeometry x="20" y="40" width="380" height="180" as="geometry" />
        </mxCell>
        <mxCell id="JWODVW2oWpwJROL9quAr-13" value="&lt;font style=&quot;font-size: 14px;&quot;&gt;Anomary Service&lt;/font&gt;&lt;div style=&quot;font-size: 14px;&quot;&gt;&lt;font style=&quot;font-size: 14px;&quot;&gt;Monitor&lt;/font&gt;&lt;/div&gt;" style="sketch=0;points=[[0,0,0],[0.25,0,0],[0.5,0,0],[0.75,0,0],[1,0,0],[0,1,0],[0.25,1,0],[0.5,1,0],[0.75,1,0],[1,1,0],[0,0.25,0],[0,0.5,0],[0,0.75,0],[1,0.25,0],[1,0.5,0],[1,0.75,0]];outlineConnect=0;fontColor=#232F3E;fillColor=#7AA116;strokeColor=#ffffff;dashed=0;verticalLabelPosition=bottom;verticalAlign=top;align=center;html=1;fontSize=12;fontStyle=0;aspect=fixed;shape=mxgraph.aws4.resourceIcon;resIcon=mxgraph.aws4.cost_explorer;" parent="JWODVW2oWpwJROL9quAr-1" vertex="1">
          <mxGeometry x="81" y="80" width="78" height="78" as="geometry" />
        </mxCell>
        <mxCell id="JWODVW2oWpwJROL9quAr-17" style="edgeStyle=orthogonalEdgeStyle;rounded=0;orthogonalLoop=1;jettySize=auto;html=1;strokeWidth=2;strokeColor=#333333;" parent="JWODVW2oWpwJROL9quAr-1" source="JWODVW2oWpwJROL9quAr-16" target="JWODVW2oWpwJROL9quAr-13" edge="1">
          <mxGeometry relative="1" as="geometry" />
        </mxCell>
        <mxCell id="JWODVW2oWpwJROL9quAr-16" value="&lt;font style=&quot;font-size: 14px;&quot;&gt;Service Anomary&lt;/font&gt;&lt;div style=&quot;font-size: 14px;&quot;&gt;&lt;font style=&quot;font-size: 14px;&quot;&gt;Subscription&lt;/font&gt;&lt;/div&gt;" style="sketch=0;points=[[0,0,0],[0.25,0,0],[0.5,0,0],[0.75,0,0],[1,0,0],[0,1,0],[0.25,1,0],[0.5,1,0],[0.75,1,0],[1,1,0],[0,0.25,0],[0,0.5,0],[0,0.75,0],[1,0.25,0],[1,0.5,0],[1,0.75,0]];outlineConnect=0;fontColor=#232F3E;fillColor=#7AA116;strokeColor=#ffffff;dashed=0;verticalLabelPosition=bottom;verticalAlign=top;align=center;html=1;fontSize=12;fontStyle=0;aspect=fixed;shape=mxgraph.aws4.resourceIcon;resIcon=mxgraph.aws4.cost_explorer;" parent="JWODVW2oWpwJROL9quAr-1" vertex="1">
          <mxGeometry x="240" y="80" width="78" height="78" as="geometry" />
        </mxCell>
        <mxCell id="JWODVW2oWpwJROL9quAr-37" style="edgeStyle=orthogonalEdgeStyle;rounded=0;orthogonalLoop=1;jettySize=auto;html=1;strokeWidth=2;strokeColor=#333333;" parent="1" source="JWODVW2oWpwJROL9quAr-16" target="JWODVW2oWpwJROL9quAr-11" edge="1">
          <mxGeometry relative="1" as="geometry">
            <Array as="points">
              <mxPoint x="650" y="159" />
              <mxPoint x="650" y="480" />
            </Array>
          </mxGeometry>
        </mxCell>
        <mxCell id="JWODVW2oWpwJROL9quAr-42" value="&lt;font style=&quot;font-size: 14px;&quot;&gt;User&lt;/font&gt;" style="sketch=0;outlineConnect=0;fontColor=#232F3E;gradientColor=none;fillColor=#232F3D;strokeColor=none;dashed=0;verticalLabelPosition=bottom;verticalAlign=top;align=center;html=1;fontSize=12;fontStyle=0;aspect=fixed;pointerEvents=1;shape=mxgraph.aws4.user;" parent="1" vertex="1">
          <mxGeometry x="1040" y="441" width="78" height="78" as="geometry" />
        </mxCell>
        <mxCell id="JWODVW2oWpwJROL9quAr-43" style="edgeStyle=orthogonalEdgeStyle;rounded=0;orthogonalLoop=1;jettySize=auto;html=1;strokeWidth=2;strokeColor=#333333;" parent="1" source="JWODVW2oWpwJROL9quAr-6" target="JWODVW2oWpwJROL9quAr-42" edge="1">
          <mxGeometry relative="1" as="geometry" />
        </mxCell>
      </root>
    </mxGraphModel>
  </diagram>
</mxfile>
